<?xml version="1.0" standalone="no"?>
<!DOCTYPE svg PUBLIC "-//W3C//DTD SVG 20010904//EN"
 "http://www.w3.org/TR/2001/REC-SVG-20010904/DTD/svg10.dtd">
<svg version="1.0" xmlns="http://www.w3.org/2000/svg"
 width="59.000000pt" height="68.000000pt" viewBox="0 0 60.000000 64.000000"
 preserveAspectRatio="xMidYMid meet">

<g transform="translate(0.000000,68.000000) scale(0.100000,-0.100000)"
fill="#fff" stroke="none">
<path d="M480 675 c-8 -2 -49 -9 -90 -15 -153 -25 -293 -93 -343 -168 -54 -80
-61 -185 -17 -259 19 -32 20 -42 11 -85 -6 -27 -11 -71 -11 -98 0 -40 3 -48
15 -44 10 4 15 20 15 48 0 22 3 57 6 77 l6 37 51 -32 c44 -27 59 -31 121 -31
57 0 82 5 121 26 112 57 189 230 211 472 l7 77 -44 -1 c-24 -1 -51 -3 -59 -4z
m-65 -68 c-53 -28 -60 -30 -63 -14 -5 25 -22 21 -22 -7 0 -17 -20 -40 -75 -85
l-75 -61 0 63 c0 60 2 65 28 76 40 19 202 60 237 60 27 0 24 -3 -30 -32z m131
-4 c-2 -16 -7 -50 -11 -78 -9 -70 -42 -189 -66 -236 -29 -58 -88 -119 -134
-140 -51 -24 -119 -24 -170 0 -66 31 -79 44 -71 74 l6 27 138 2 137 2 -132 3
c-73 2 -133 8 -133 12 0 5 19 38 43 73 l42 63 120 5 120 6 -107 2 c-60 1 -108
5 -108 9 0 7 72 70 109 95 19 13 46 18 99 18 41 0 72 4 72 10 0 6 -24 10 -52
11 l-53 0 70 35 c38 19 73 34 78 34 5 0 6 -12 3 -27z m-413 -237 l-38 -57 -3
65 c-5 103 -21 78 -24 -36 l-3 -103 -18 37 c-37 81 -16 162 61 238 l57 55 3
-71 c3 -66 1 -73 -35 -128z"/>
</g>
</svg>
