<?xml version="1.0" standalone="no"?>
<!DOCTYPE svg PUBLIC "-//W3C//DTD SVG 20010904//EN"
 "http://www.w3.org/TR/2001/REC-SVG-20010904/DTD/svg10.dtd">
<svg version="1.0" xmlns="http://www.w3.org/2000/svg"
 width="60.000000pt" height="64.000000pt" viewBox="0 0 60.000000 64.000000"
 preserveAspectRatio="xMidYMid meet">

<g transform="translate(0.000000,64.000000) scale(0.100000,-0.100000)"
fill="#fff" stroke="none">
<path d="M85 620 c-25 -27 -45 -127 -45 -226 0 -66 -4 -86 -20 -107 -17 -22
-20 -40 -20 -132 0 -99 2 -107 25 -130 23 -23 31 -25 130 -25 72 0 115 5 133
14 15 8 91 79 170 158 116 119 142 150 142 173 0 23 -21 50 -108 137 -136 136
-139 137 -237 38 -38 -38 -72 -70 -76 -70 -3 0 -9 28 -13 62 -6 59 -30 118
-52 125 -6 2 -19 -6 -29 -17z m43 -67 c6 -27 13 -69 15 -95 4 -42 1 -50 -27
-77 -18 -17 -36 -31 -40 -31 -12 0 0 177 14 218 16 44 26 40 38 -15z m340 -91
c60 -57 102 -105 102 -116 0 -22 -249 -279 -292 -302 -18 -9 -59 -14 -122 -14
-126 0 -128 1 -124 134 3 104 13 123 34 63 7 -20 8 -36 2 -44 -32 -41 9 -123
62 -123 58 0 95 58 74 115 -9 22 -61 47 -84 40 -15 -5 -21 1 -29 32 -6 21 -11
42 -11 48 0 16 253 265 270 265 8 0 61 -44 118 -98z m-306 -289 c19 -17 25
-63 9 -63 -12 0 -51 54 -51 69 0 16 21 13 42 -6z m-36 -82 c-14 -6 -46 38 -39
54 4 11 11 6 27 -18 12 -17 18 -34 12 -36z"/>
</g>
</svg>
